<svg width="150" height="55" viewBox="0 0 150 55" fill="none" xmlns="http://www.w3.org/2000/svg">
<g clip-path="url(#clip0_4581_15246)">
<path d="M144.811 52.7616H5.35828C2.39911 52.7616 0 50.6904 0 48.135V15.0515C0 12.5719 2.26527 10.5322 5.13532 10.4289L144.587 5.41522C147.632 5.30583 150.169 7.40705 150.169 10.0377V48.1358C150.169 50.6901 147.77 52.7616 144.811 52.7616Z" fill="#11BDCF"/>
<path d="M23.4096 35.2591V42.0847C23.4101 42.1415 23.3967 42.1977 23.3704 42.2482C23.3441 42.2986 23.3058 42.3419 23.2589 42.374C21.2336 43.7473 18.1447 44.7221 15.5686 44.7221C9.82832 44.7221 5.48926 40.5717 5.48926 35.0744C5.48926 29.6045 9.93568 25.4814 15.891 25.4814C18.5701 25.4814 21.3983 26.4673 23.3366 28.0612C23.4066 28.1207 23.4502 28.2054 23.458 28.2969C23.4657 28.3884 23.4369 28.4793 23.3779 28.5496L21.1266 31.2734C21.0974 31.3084 21.0615 31.3372 21.0211 31.3581C20.9806 31.379 20.9364 31.3917 20.891 31.3953C20.8457 31.3989 20.8 31.3935 20.7568 31.3793C20.7135 31.365 20.6735 31.3423 20.6392 31.3125C19.2906 30.1839 17.5053 29.4961 15.8637 29.4961C12.7652 29.4961 10.3941 31.9219 10.3941 35.0744C10.3941 38.2817 12.7915 40.7064 15.9174 40.7064C16.8322 40.7064 17.9844 40.396 19.0619 39.8866C19.1212 39.8579 19.1712 39.8131 19.2061 39.7572C19.241 39.7014 19.2595 39.6368 19.2592 39.5709V35.2591C19.2592 35.2137 19.2682 35.1687 19.2856 35.1268C19.303 35.0848 19.3285 35.0467 19.3606 35.0146C19.3928 34.9824 19.4309 34.957 19.4729 34.9396C19.5149 34.9223 19.5599 34.9134 19.6053 34.9134H23.0636C23.109 34.9134 23.154 34.9223 23.196 34.9396C23.2379 34.957 23.2761 34.9824 23.3082 35.0146C23.3404 35.0467 23.3659 35.0848 23.3833 35.1268C23.4007 35.1687 23.4096 35.2137 23.4096 35.2591Z" fill="#2A4F77"/>
<path d="M36.4025 39.1975H32.6288V44.507H27.833V25.6426H36.2678C41.2519 25.6426 44.1084 28.015 44.1084 32.218C44.1084 35.1018 42.8966 37.1772 40.6868 38.2817L44.6475 44.507H39.2043L36.4025 39.1975ZM36.2691 35.4252C38.3431 35.4252 39.5563 34.3744 39.5563 32.38C39.5563 30.413 38.3431 29.4152 36.2691 29.4152H32.6288V35.4252H36.2691Z" fill="#2A4F77"/>
<path d="M52.7094 41.0295L51.3352 44.507H46.4033L54.543 25.6426H59.4739L67.4222 44.507H62.303L60.9554 41.0301L52.7094 41.0295ZM56.8601 30.4124L54.1096 37.3919H59.5539L56.8601 30.4124Z" fill="#2A4F77"/>
<path d="M78.3656 25.6426C84.2943 25.6426 88.39 29.4699 88.39 35.0745C88.39 40.6527 84.2396 44.5064 78.1769 44.5064H70.2539V25.6426H78.3656ZM75.051 40.6801H78.473C81.4105 40.6801 83.5121 38.4164 83.5121 35.1018C83.5121 31.7599 81.3031 29.4699 78.2583 29.4699H75.051V40.6801Z" fill="#2A4F77"/>
<path d="M96.801 29.4152V33.1615H105.803V36.9338H96.801V40.7344H107.069V44.507H92.0049V25.6426H106.772V29.4152H96.801Z" fill="#2A4F77"/>
<path d="M124.048 40.4917V44.507H111.248V25.6426H116.044V40.4917H124.048Z" fill="#2A4F77"/>
<path d="M137.147 44.507H132.378V38.551L125.398 25.6426H130.194L134.749 33.8616L139.195 25.6426H143.991L137.147 38.4164V44.507Z" fill="#2A4F77"/>
</g>
<defs>
<clipPath id="clip0_4581_15246">
<rect width="150" height="54.1148" fill="white"/>
</clipPath>
</defs>
</svg>
